<svg width="256" height="256" viewBox="0 0 256 256" fill="none" xmlns="http://www.w3.org/2000/svg">
<rect width="256" height="256" rx="12" fill="#0E1422"/>
<g clip-path="url(#clip0_1202_1360)">
<g clip-path="url(#clip1_1202_1360)">
<path d="M67.7153 114.715C67.7153 121.358 66.9424 127.219 65.3966 131.907C63.8508 136.987 61.5322 140.894 58.4407 144.02C55.3492 147.146 51.4847 149.49 47.2339 151.444C42.9831 153.007 37.9593 153.788 32.5492 153.788C30.2305 153.788 27.139 153.788 23.661 153.398C20.1831 153.007 17.0915 152.616 14 151.835V77.5962C17.0915 76.8148 20.5695 76.424 24.0475 76.0333C27.5254 75.6426 30.6169 75.6426 32.9356 75.6426C38.3458 75.6426 42.9831 76.424 47.2339 77.9869C51.4847 79.5499 55.3492 81.8942 58.4407 85.0201C61.5322 88.1459 63.8508 92.0532 65.3966 97.1326C66.9424 101.821 67.7153 107.682 67.7153 114.715ZM27.9119 138.941C28.6847 138.941 29.4576 138.941 30.2305 138.941C31.0034 138.941 32.1627 138.941 33.322 138.941C40.278 138.941 45.3017 136.596 48.7797 132.298C52.2576 128 53.8034 122.139 53.8034 114.325C53.8034 106.51 52.2576 100.258 49.1661 96.3512C45.6881 92.4439 40.6644 90.4903 33.7085 90.4903C32.9356 90.4903 31.7763 90.4903 30.617 90.4903C29.4576 90.4903 28.6847 90.4903 27.9119 90.881V138.941Z" fill="white"/>
<path d="M173.6 153.397C172.441 150.662 170.895 147.536 169.349 144.411C167.803 141.285 165.871 138.159 163.939 134.642C162.007 131.517 160.075 128.391 157.756 125.265C155.437 122.139 153.505 119.795 151.186 117.45V153.397H137.275V69H151.186V100.649C154.664 95.5695 158.529 90.0993 162.007 84.6291C165.871 79.1589 168.963 73.6887 172.054 69H188.671C184.42 76.0331 180.169 82.2848 175.919 88.9272C171.668 95.5695 167.03 101.43 162.393 108.073C167.417 113.543 172.054 120.576 176.691 128C181.329 135.815 185.58 144.411 189.83 153.788H173.6V153.397Z" fill="white"/>
<path d="M242 187H93.9932V175.669H224.224L205.675 138.94L215.722 133.861L242 187Z" fill="white"/>
<path d="M95.5389 90.8809C104.814 90.8809 111.769 92.4438 116.793 95.9603C121.817 99.4769 124.136 104.556 124.136 111.589C124.136 115.887 122.976 119.404 121.044 122.139C119.112 124.874 116.02 126.828 112.542 128.391C113.702 129.954 115.247 131.907 116.407 133.861C117.953 135.815 119.112 138.159 120.271 140.113C121.43 142.457 122.976 144.411 124.136 146.755C125.295 149.099 126.454 151.444 127.614 153.788H112.156C112.156 153.788 112.156 153.788 111.769 153.788C109.451 149.49 107.519 145.583 105.2 141.676C104.041 139.722 102.881 137.768 101.722 136.205C100.563 134.252 99.4033 132.689 98.244 131.517H91.2881V154.179H77.3762V92.4438C80.4677 91.6623 83.5593 91.2716 86.6508 91.2716C90.1288 90.8809 92.8339 90.8809 95.5389 90.8809ZM96.3118 102.603C95.1525 102.603 94.3796 102.603 93.6067 102.603C92.8339 102.603 92.061 102.603 91.2881 102.603V119.795H95.1525C100.176 119.795 104.041 119.013 106.359 117.841C108.678 116.669 109.837 114.325 109.837 111.199C109.837 108.073 108.678 106.119 106.359 104.556C104.041 103.384 100.563 102.603 96.3118 102.603Z" fill="white"/>
</g>
</g>
<defs>
<clipPath id="clip0_1202_1360">
<rect width="228" height="118" fill="white" transform="translate(14 69)"/>
</clipPath>
<clipPath id="clip1_1202_1360">
<rect width="228" height="118" fill="white" transform="translate(14 69)"/>
</clipPath>
</defs>
</svg>
